<?xml version="1.0" encoding="UTF-8"?>
<!DOCTYPE svg PUBLIC "-//W3C//DTD SVG 1.1//EN" "http://www.w3.org/Graphics/SVG/1.1/DTD/svg11.dtd">
<svg xmlns="http://www.w3.org/2000/svg" version="1.1" width="3548px" height="1300px" style="shape-rendering:geometricPrecision; text-rendering:geometricPrecision; image-rendering:optimizeQuality; fill-rule:evenodd; clip-rule:evenodd" xmlns:xlink="http://www.w3.org/1999/xlink">
<g><path style="opacity:0.998" fill="#3232db" d="M 277.5,-0.5 C 294.5,-0.5 311.5,-0.5 328.5,-0.5C 430.924,11.2692 509.424,60.6025 564,147.5C 614.066,236.289 620.066,327.956 582,422.5C 570.515,447.491 556.515,470.824 540,492.5C 527.965,504.866 516.299,517.533 505,530.5C 488.444,518.278 471.61,506.444 454.5,495C 408.092,469.481 358.425,455.981 305.5,454.5C 247.633,456.297 193.633,471.464 143.5,500C 131.342,508.913 119.008,517.579 106.5,526C 104.635,527.301 102.635,527.635 100.5,527C 98.0038,525.92 95.6705,524.586 93.5,523C 85.5959,515.766 78.4292,507.933 72,499.5C 56.0851,477.347 41.4185,454.347 28,430.5C 11.2337,392.107 1.73367,352.107 -0.5,310.5C -0.5,301.167 -0.5,291.833 -0.5,282.5C 10.8402,171.285 65.1735,88.4514 162.5,34C 198.765,15.1894 237.098,3.68939 277.5,-0.5 Z"/></g>
<g><path style="opacity:0.994" fill="#3232db" d="M 3151.5,95.5 C 3171.17,95.3334 3190.84,95.5 3210.5,96C 3219,96.1269 3227.33,97.2935 3235.5,99.5C 3236.33,142.829 3236.83,186.163 3237,229.5C 3255.6,217.303 3276.1,211.137 3298.5,211C 3327.5,210.333 3356.5,210.333 3385.5,211C 3460.25,211.934 3511.08,247.1 3538,316.5C 3542.95,352.654 3545.61,388.987 3546,425.5C 3546.67,482.167 3546.67,538.833 3546,595.5C 3545.72,609.188 3545.06,622.854 3544,636.5C 3516.06,638.487 3487.89,639.153 3459.5,638.5C 3459.41,589.832 3459.07,541.165 3458.5,492.5C 3458.42,459.147 3459.08,425.814 3460.5,392.5C 3460.69,372.697 3457.86,353.364 3452,334.5C 3443.38,315.903 3428.88,304.736 3408.5,301C 3385.17,297.112 3361.67,295.612 3338,296.5C 3325.17,296.667 3312.33,296.833 3299.5,297C 3267.65,300.842 3247.48,318.342 3239,349.5C 3237.61,355.436 3236.61,361.436 3236,367.5C 3234.59,440.345 3234.75,513.179 3236.5,586C 3236.69,603.881 3236.02,621.714 3234.5,639.5C 3206.49,640.561 3178.49,640.561 3150.5,639.5C 3148.96,618.543 3148.29,597.543 3148.5,576.5C 3149.65,460.834 3149.65,345.167 3148.5,229.5C 3148.67,196.167 3148.83,162.833 3149,129.5C 3149.36,118.123 3150.2,106.79 3151.5,95.5 Z"/></g>
<g><path style="opacity:0.994" fill="#3232db" d="M 2315.5,95.5 C 2335.53,96.0072 2355.53,97.0072 2375.5,98.5C 2373.2,121.763 2372.03,145.096 2372,168.5C 2371.23,173.191 2370.39,177.858 2369.5,182.5C 2319.15,182.796 2268.82,182.463 2218.5,181.5C 2217.69,334.499 2217.35,487.499 2217.5,640.5C 2189.18,641.411 2160.85,641.744 2132.5,641.5C 2132.5,489.5 2132.5,337.5 2132.5,185.5C 2108.44,182.657 2084.28,181.324 2060,181.5C 2032.8,181.738 2005.63,182.738 1978.5,184.5C 1976.92,174.743 1975.92,164.91 1975.5,155C 1976.66,137.823 1976.82,120.656 1976,103.5C 1978.37,101.788 1980.7,100.122 1983,98.5C 1985.5,98 1988,97.5 1990.5,97C 2099,96.8331 2207.33,96.3331 2315.5,95.5 Z"/></g>
<g><path style="opacity:0.996" fill="#121479" d="M 720.5,97.5 C 734.597,97.8835 746.93,102.717 757.5,112C 771.496,125.32 783.996,139.82 795,155.5C 837.374,204.206 879.374,253.206 921,302.5C 932.308,291.524 943.308,280.191 954,268.5C 989.812,225.534 1025.15,182.2 1060,138.5C 1068.8,128.696 1077.97,119.196 1087.5,110C 1107.28,93.6194 1127.11,93.4528 1147,109.5C 1149.96,117.533 1151.63,125.866 1152,134.5C 1153.63,154.802 1154.63,175.136 1155,195.5C 1156.31,317.165 1156.14,438.832 1154.5,560.5C 1154.4,587.526 1155.06,614.526 1156.5,641.5C 1128.84,642.302 1101.17,642.635 1073.5,642.5C 1075.85,520.17 1076.02,397.837 1074,275.5C 1073.63,269.796 1072.97,264.13 1072,258.5C 1030.54,306.962 988.707,355.129 946.5,403C 932.371,414.009 917.371,415.342 901.5,407C 894.069,401.573 887.236,395.407 881,388.5C 844.04,345.204 806.707,302.204 769,259.5C 767.862,386.498 767.029,513.498 766.5,640.5C 738.502,639.767 710.502,639.1 682.5,638.5C 681.217,624.869 680.55,611.202 680.5,597.5C 681.979,546.679 682.645,495.845 682.5,445C 682.193,354.326 681.526,263.66 680.5,173C 681.133,162.173 681.633,151.34 682,140.5C 684.637,116.711 697.47,102.378 720.5,97.5 Z"/></g>
<g><path style="opacity:0.994" fill="#3232db" d="M 2474.5,209.5 C 2515.04,207.958 2555.04,211.791 2594.5,221C 2652.08,240.946 2685.58,281.113 2695,341.5C 2696.84,357.111 2697.84,372.778 2698,388.5C 2698.28,414.506 2698.78,440.506 2699.5,466.5C 2699.54,478.713 2698.04,490.713 2695,502.5C 2688.46,515.198 2677.96,522.031 2663.5,523C 2656.52,523.921 2649.52,524.588 2642.5,525C 2569.5,525.316 2496.5,525.816 2423.5,526.5C 2420.84,497.468 2421.17,468.468 2424.5,439.5C 2436.66,440.285 2448.82,440.952 2461,441.5C 2510.84,440.014 2560.67,439.68 2610.5,440.5C 2612.26,410.45 2611.76,380.45 2609,350.5C 2602.86,323.022 2586.02,306.188 2558.5,300C 2549.58,298.291 2540.58,297.291 2531.5,297C 2505.83,296.333 2480.17,296.333 2454.5,297C 2418.62,301.211 2397.12,321.044 2390,356.5C 2388.37,393.81 2387.7,431.143 2388,468.5C 2388.22,483.943 2390.89,498.943 2396,513.5C 2405.96,535.769 2423.12,548.602 2447.5,552C 2452.49,552.749 2457.49,553.415 2462.5,554C 2536.84,554.167 2611.17,554.667 2685.5,555.5C 2687.59,559.934 2688.76,564.6 2689,569.5C 2690.4,593.169 2690.23,616.835 2688.5,640.5C 2614.51,640.319 2540.51,640.153 2466.5,640C 2397.19,638.624 2346.69,607.457 2315,546.5C 2306.44,521.236 2301.77,495.236 2301,468.5C 2300.27,434.823 2300.6,401.157 2302,367.5C 2305.15,308.658 2331.32,263.491 2380.5,232C 2397.46,221.681 2415.79,215.348 2435.5,213C 2448.62,211.467 2461.62,210.3 2474.5,209.5 Z"/></g>
<g><path style="opacity:0.994" fill="#3232db" d="M 2900.5,210.5 C 2921.84,210.333 2943.17,210.5 2964.5,211C 3037.29,215.127 3087.12,250.96 3114,318.5C 3119.73,334.876 3120.9,351.542 3117.5,368.5C 3089.83,369.156 3062.17,369.822 3034.5,370.5C 3033.19,348.727 3025.19,329.894 3010.5,314C 2993.62,301.69 2974.62,295.69 2953.5,296C 2925.8,295.556 2898.14,296.223 2870.5,298C 2837.81,303.028 2818.64,321.861 2813,354.5C 2811.04,369.766 2809.87,385.099 2809.5,400.5C 2810.26,426.826 2810.76,453.159 2811,479.5C 2811.53,497.765 2816.87,514.432 2827,529.5C 2839.4,543.284 2854.9,551.117 2873.5,553C 2905.82,554.734 2938.15,554.734 2970.5,553C 2990.78,552.95 3006.28,544.45 3017,527.5C 3024.96,512.777 3031.46,497.444 3036.5,481.5C 3052.84,481.51 3069.17,481.177 3085.5,480.5C 3096.96,480.313 3108.29,481.313 3119.5,483.5C 3121.38,509.935 3115.54,534.602 3102,557.5C 3085.29,587.547 3061.45,610.047 3030.5,625C 3008.64,633.505 2985.98,638.172 2962.5,639C 2933.5,639.667 2904.5,639.667 2875.5,639C 2802.81,632.632 2754.31,595.132 2730,526.5C 2725.48,509.135 2723.31,491.468 2723.5,473.5C 2723.95,438.172 2724.12,402.839 2724,367.5C 2727.09,309.131 2752.92,263.965 2801.5,232C 2822.56,220.066 2845.23,213.399 2869.5,212C 2880.01,211.83 2890.34,211.33 2900.5,210.5 Z"/></g>
<g><path style="opacity:0.997" fill="#121479" d="M 1226.5,211.5 C 1287.83,211.333 1349.17,211.5 1410.5,212C 1439.62,212.02 1467.95,216.686 1495.5,226C 1539.1,244.939 1566.93,277.439 1579,323.5C 1585.71,361.69 1588.88,400.19 1588.5,439C 1587.27,487.328 1586.27,535.661 1585.5,584C 1585.29,602.234 1585.96,620.4 1587.5,638.5C 1586.97,639.192 1586.31,639.692 1585.5,640C 1580.87,640.828 1576.2,641.328 1571.5,641.5C 1554.86,639.902 1538.19,639.402 1521.5,640C 1516.47,640.343 1511.64,641.51 1507,643.5C 1506.23,643.355 1505.56,643.022 1505,642.5C 1502.76,636.355 1500.26,630.355 1497.5,624.5C 1478.64,632.631 1458.98,637.798 1438.5,640C 1402.17,643.229 1365.84,643.229 1329.5,640C 1276.03,633.497 1237.2,606.33 1213,558.5C 1201.1,530.857 1197.77,502.19 1203,472.5C 1211.85,410.327 1246.35,370.494 1306.5,353C 1327.46,347.285 1348.79,343.951 1370.5,343C 1391.49,341.94 1412.49,341.606 1433.5,342C 1455.79,344.573 1477.79,348.74 1499.5,354.5C 1499.83,354.167 1500.17,353.833 1500.5,353.5C 1498.57,349.542 1496.74,345.542 1495,341.5C 1488.5,332.333 1482,323.167 1475.5,314C 1466.4,305.785 1455.73,300.785 1443.5,299C 1418.19,297.89 1392.85,297.39 1367.5,297.5C 1319.82,297.658 1272.16,298.324 1224.5,299.5C 1224.39,283.996 1224.06,268.496 1223.5,253C 1223.4,239.07 1224.4,225.237 1226.5,211.5 Z M 1364.5,410.5 C 1392.71,410.032 1420.71,412.199 1448.5,417C 1485.45,429.027 1502.28,454.527 1499,493.5C 1496.39,519.757 1482.89,537.591 1458.5,547C 1427.15,556.233 1395.15,559.566 1362.5,557C 1336.32,557.724 1313.82,549.224 1295,531.5C 1277.04,509.672 1272.7,485.339 1282,458.5C 1291.5,434.48 1309,419.98 1334.5,415C 1344.57,412.931 1354.57,411.431 1364.5,410.5 Z"/></g>
<g><path style="opacity:0.996" fill="#121479" d="M 1780.5,211.5 C 1801.2,211.525 1821.87,212.359 1842.5,214C 1897.02,222.008 1936.86,250.508 1962,299.5C 1970.61,319.616 1975.61,340.616 1977,362.5C 1977.2,374.7 1977.7,386.866 1978.5,399C 1977.49,423.301 1976.82,447.635 1976.5,472C 1976.79,516.666 1977.13,561.333 1977.5,606C 1977.62,617.226 1976.95,628.393 1975.5,639.5C 1947.77,638.987 1920.1,639.987 1892.5,642.5C 1891.08,632.897 1890.24,623.231 1890,613.5C 1889.77,533.499 1889.77,453.499 1890,373.5C 1889.6,354.541 1884.27,337.208 1874,321.5C 1860.08,306.791 1842.91,298.958 1822.5,298C 1804.42,296.902 1786.42,297.568 1768.5,300C 1739.16,304.007 1720.33,320.173 1712,348.5C 1709.31,360.355 1707.64,372.355 1707,384.5C 1706.6,458.016 1707.43,531.516 1709.5,605C 1709.35,616.921 1708.35,628.754 1706.5,640.5C 1681.83,640.333 1657.16,640.5 1632.5,641C 1629.65,642.43 1626.65,643.263 1623.5,643.5C 1622.33,626.025 1621.67,608.525 1621.5,591C 1621.69,514.838 1621.86,438.671 1622,362.5C 1626.68,301.873 1655.52,257.04 1708.5,228C 1731.4,217.19 1755.4,211.69 1780.5,211.5 Z"/></g>
<g><path style="opacity:0.999" fill="#121479" d="M 290.5,511.5 C 368.103,509.741 433.603,536.741 487,592.5C 547.919,666.042 565.086,748.876 538.5,841C 526.107,875.306 507.274,905.473 482,931.5C 414.956,869.774 336.456,847.274 246.5,864C 211.224,872.85 179.224,888.183 150.5,910C 141.956,917.546 133.123,924.712 124,931.5C 60.6643,860.816 41.331,779.483 66,687.5C 103.681,581.673 178.514,523.006 290.5,511.5 Z"/></g>
<g><path style="opacity:0.974" fill="#717275" d="M 755.5,710.5 C 783.359,707.235 809.026,713.069 832.5,728C 848.085,741.571 856.085,758.738 856.5,779.5C 846.48,779.912 836.48,780.578 826.5,781.5C 823.508,754.676 808.508,740.176 781.5,738C 765.484,736.145 750.151,738.478 735.5,745C 719.958,755.006 715.791,768.506 723,785.5C 725.167,789 728,791.833 731.5,794C 738.851,797.784 746.518,800.784 754.5,803C 777.134,807.908 799.467,813.908 821.5,821C 860.658,839.162 872.158,868.329 856,908.5C 846.371,924.788 832.537,935.955 814.5,942C 784.077,950.281 754.077,948.947 724.5,938C 696.382,923.956 681.715,901.123 680.5,869.5C 690.222,868.496 699.889,867.662 709.5,867C 713.629,896.13 730.295,913.13 759.5,918C 780.821,922.099 800.821,918.765 819.5,908C 837.313,891.575 837.98,874.575 821.5,857C 814.999,852.716 807.999,849.383 800.5,847C 776.239,841.268 752.239,834.602 728.5,827C 695,812.5 683.167,787.667 693,752.5C 701.191,733.313 715.358,720.813 735.5,715C 742.233,713.147 748.899,711.647 755.5,710.5 Z"/></g>
<g><path style="opacity:0.974" fill="#717275" d="M 2050.5,710.5 C 2072.26,707.032 2090.76,713.032 2106,728.5C 2122.88,755.543 2119.38,779.709 2095.5,801C 2088.61,806.061 2081.61,810.894 2074.5,815.5C 2087.67,832.5 2100.83,849.5 2114,866.5C 2118.39,856.817 2121.89,846.817 2124.5,836.5C 2125.33,836.167 2126.17,835.833 2127,835.5C 2134.15,837.079 2141.32,838.579 2148.5,840C 2151.01,840.115 2153.01,841.115 2154.5,843C 2150.55,860.198 2143.88,876.198 2134.5,891C 2144.87,904.372 2156.87,916.039 2170.5,926C 2164.35,933.816 2157.85,941.316 2151,948.5C 2145.23,945.071 2139.73,941.238 2134.5,937C 2127.96,930.626 2121.62,924.126 2115.5,917.5C 2085.3,948.639 2050.3,955.473 2010.5,938C 1978.11,915.483 1969.61,885.983 1985,849.5C 1996.66,832.682 2011.82,820.015 2030.5,811.5C 2021.53,801.694 2014.37,790.694 2009,778.5C 2001.2,748.588 2011.37,727.088 2039.5,714C 2043.33,712.966 2047,711.8 2050.5,710.5 Z M 2061.5,733.5 C 2082.77,737.696 2090.61,750.363 2085,771.5C 2083.5,775.165 2081.5,778.498 2079,781.5C 2072.62,786.885 2065.95,791.885 2059,796.5C 2050.12,787.623 2042.79,777.623 2037,766.5C 2033.88,747.121 2042.05,736.121 2061.5,733.5 Z M 2044.5,831.5 C 2047.36,832.834 2049.86,834.834 2052,837.5C 2066.79,856.623 2081.95,875.456 2097.5,894C 2083.78,914.027 2064.78,923.027 2040.5,921C 2029,917.841 2020.5,911.008 2015,900.5C 2006.33,886.167 2006.33,871.833 2015,857.5C 2023.23,846.835 2033.06,838.168 2044.5,831.5 Z"/></g>
<g><path style="opacity:0.973" fill="#717275" d="M 2352.5,710.5 C 2380.36,707.235 2406.03,713.069 2429.5,728C 2445.08,741.562 2453.08,758.728 2453.5,779.5C 2443.48,779.912 2433.48,780.578 2423.5,781.5C 2420.5,754.665 2405.5,740.165 2378.5,738C 2362.47,736.086 2347.14,738.419 2332.5,745C 2316.83,755.01 2312.66,768.51 2320,785.5C 2322.17,789 2325,791.833 2328.5,794C 2335.85,797.784 2343.52,800.784 2351.5,803C 2374.13,807.908 2396.47,813.908 2418.5,821C 2455.85,837.703 2468.02,865.536 2455,904.5C 2445.71,922.917 2431.21,935.417 2411.5,942C 2381.07,950.318 2351.07,948.985 2321.5,938C 2293.38,923.949 2278.71,901.116 2277.5,869.5C 2286.87,868.719 2296.2,867.719 2305.5,866.5C 2310.21,895.709 2327.21,912.876 2356.5,918C 2377.82,922.099 2397.82,918.765 2416.5,908C 2434.22,891.56 2434.89,874.56 2418.5,857C 2412,852.716 2405,849.383 2397.5,847C 2373.23,841.267 2349.23,834.6 2325.5,827C 2292,812.495 2280.16,787.662 2290,752.5C 2298.19,733.313 2312.36,720.813 2332.5,715C 2339.23,713.147 2345.9,711.647 2352.5,710.5 Z"/></g>
<g><path style="opacity:0.961" fill="#717275" d="M 2669.5,713.5 C 2679.17,713.5 2688.83,713.5 2698.5,713.5C 2698.5,790.167 2698.5,866.833 2698.5,943.5C 2688.83,943.5 2679.17,943.5 2669.5,943.5C 2669.5,866.833 2669.5,790.167 2669.5,713.5 Z"/></g>
<g><path style="opacity:0.929" fill="#717275" d="M 3000.5,713.5 C 3010.17,713.5 3019.83,713.5 3029.5,713.5C 3029.5,724.833 3029.5,736.167 3029.5,747.5C 3019.83,747.5 3010.17,747.5 3000.5,747.5C 3000.5,736.167 3000.5,724.833 3000.5,713.5 Z"/></g>
<g><path style="opacity:0.968" fill="#717275" d="M 1244.5,719.5 C 1246.49,738.471 1247.15,757.804 1246.5,777.5C 1255.83,777.5 1265.17,777.5 1274.5,777.5C 1274.5,784.833 1274.5,792.167 1274.5,799.5C 1265.17,799.5 1255.83,799.5 1246.5,799.5C 1246.03,836.54 1246.53,873.54 1248,910.5C 1249.27,914.77 1252.1,917.27 1256.5,918C 1262.81,918.374 1268.98,918.54 1275,918.5C 1276.6,926.783 1277.77,935.116 1278.5,943.5C 1265.86,945.854 1253.2,946.02 1240.5,944C 1231.29,941.653 1224.79,936.153 1221,927.5C 1219.18,920.63 1218.18,913.63 1218,906.5C 1217.5,870.835 1217.33,835.168 1217.5,799.5C 1210.83,799.5 1204.17,799.5 1197.5,799.5C 1197.5,792.167 1197.5,784.833 1197.5,777.5C 1204.17,777.5 1210.83,777.5 1217.5,777.5C 1217.17,763.484 1217.5,749.484 1218.5,735.5C 1227.47,730.502 1236.14,725.168 1244.5,719.5 Z"/></g>
<g><path style="opacity:0.983" fill="#717275" d="M 2945.5,719.5 C 2947.49,738.471 2948.15,757.804 2947.5,777.5C 2957.17,777.5 2966.83,777.5 2976.5,777.5C 2976.5,784.833 2976.5,792.167 2976.5,799.5C 2966.83,799.5 2957.17,799.5 2947.5,799.5C 2947.1,836.185 2947.6,872.852 2949,909.5C 2950.5,913.667 2953.33,916.5 2957.5,918C 2963.87,918.706 2970.2,918.539 2976.5,917.5C 2977.62,926.203 2978.95,934.869 2980.5,943.5C 2966.46,946.307 2952.46,946.14 2938.5,943C 2926.5,937.84 2920.33,928.673 2920,915.5C 2919.5,876.835 2919.33,838.168 2919.5,799.5C 2912.5,799.5 2905.5,799.5 2898.5,799.5C 2898.5,792.167 2898.5,784.833 2898.5,777.5C 2905.5,777.5 2912.5,777.5 2919.5,777.5C 2919.33,763.496 2919.5,749.496 2920,735.5C 2928.82,730.517 2937.32,725.184 2945.5,719.5 Z"/></g>
<g><path style="opacity:0.971" fill="#717275" d="M 1098.5,773.5 C 1118.56,771.546 1137.56,775.046 1155.5,784C 1167.73,792.605 1174.73,804.439 1176.5,819.5C 1167.01,821.897 1157.34,823.564 1147.5,824.5C 1145.11,809.605 1136.44,800.772 1121.5,798C 1110.6,796.744 1099.93,797.744 1089.5,801C 1074.96,809.46 1073.29,819.793 1084.5,832C 1088.27,834.219 1092.27,835.885 1096.5,837C 1116.01,842.045 1135.35,847.712 1154.5,854C 1176.22,862.929 1185.39,879.096 1182,902.5C 1177.81,922.04 1166.31,935.207 1147.5,942C 1124.06,949.556 1100.73,949.223 1077.5,941C 1058.88,931.694 1047.88,916.694 1044.5,896C 1044.75,894.674 1045.42,893.674 1046.5,893C 1055.13,891.338 1063.8,890.338 1072.5,890C 1076.28,908.784 1087.62,919.784 1106.5,923C 1117.54,924.462 1128.21,923.129 1138.5,919C 1150.24,912.35 1154.41,902.517 1151,889.5C 1145.37,882.926 1138.2,878.759 1129.5,877C 1111.9,872.932 1094.56,867.932 1077.5,862C 1056.66,853.498 1047.16,837.998 1049,815.5C 1052.07,797.85 1061.91,785.683 1078.5,779C 1085.21,776.826 1091.87,774.993 1098.5,773.5 Z"/></g>
<g><path style="opacity:0.976" fill="#717275" d="M 1356.5,773.5 C 1404.08,770.931 1432.58,792.931 1442,839.5C 1443.13,848.8 1443.63,858.134 1443.5,867.5C 1402.17,867.5 1360.83,867.5 1319.5,867.5C 1319.71,886.751 1327.05,902.584 1341.5,915C 1357.61,925.008 1374.28,926.008 1391.5,918C 1401.6,911.325 1408.43,902.158 1412,890.5C 1412.89,889.919 1413.89,889.585 1415,889.5C 1423.82,890.789 1432.65,891.956 1441.5,893C 1440.03,903.463 1435.86,912.963 1429,921.5C 1413.27,939.694 1393.27,948.36 1369,947.5C 1333.02,947.867 1308.35,931.533 1295,898.5C 1287.19,871.619 1287.86,844.952 1297,818.5C 1308.71,792.607 1328.54,777.607 1356.5,773.5 Z M 1358.5,797.5 C 1381.33,794.497 1397.83,803.164 1408,823.5C 1410.57,830.277 1412.07,837.277 1412.5,844.5C 1382.17,844.5 1351.83,844.5 1321.5,844.5C 1323.19,820.175 1335.52,804.508 1358.5,797.5 Z"/></g>
<g><path style="opacity:0.975" fill="#717275" d="M 1540.5,773.5 C 1557.71,771.37 1573.21,775.37 1587,785.5C 1591.35,790.193 1594.68,795.527 1597,801.5C 1618.9,772.847 1646.4,766.013 1679.5,781C 1691.29,789.412 1697.79,800.912 1699,815.5C 1699.5,858.165 1699.67,900.832 1699.5,943.5C 1690.17,943.5 1680.83,943.5 1671.5,943.5C 1671.67,907.832 1671.5,872.165 1671,836.5C 1671.82,805.833 1657.32,794 1627.5,801C 1610.32,808.836 1601.82,822.336 1602,841.5C 1601.5,875.498 1601.33,909.498 1601.5,943.5C 1591.83,943.5 1582.17,943.5 1572.5,943.5C 1572.67,903.832 1572.5,864.165 1572,824.5C 1567.82,802.309 1554.65,794.142 1532.5,800C 1513.48,807.489 1503.98,821.655 1504,842.5C 1503.5,876.165 1503.33,909.832 1503.5,943.5C 1493.83,943.5 1484.17,943.5 1474.5,943.5C 1474.5,888.167 1474.5,832.833 1474.5,777.5C 1483.17,777.5 1491.83,777.5 1500.5,777.5C 1500.33,784.508 1500.5,791.508 1501,798.5C 1510.89,784.972 1524.06,776.639 1540.5,773.5 Z"/></g>
<g><path style="opacity:0.97" fill="#717275" d="M 1781.5,773.5 C 1801.55,771.546 1820.55,775.046 1838.5,784C 1850.74,792.643 1857.74,804.476 1859.5,819.5C 1850.01,821.897 1840.34,823.564 1830.5,824.5C 1828.84,811.668 1821.84,803.168 1809.5,799C 1795.36,796.004 1781.69,797.338 1768.5,803C 1755.56,815.905 1757.22,826.572 1773.5,835C 1793.89,840.798 1814.23,846.798 1834.5,853C 1859.72,862.243 1869.55,880.077 1864,906.5C 1858.75,922.756 1848.25,934.256 1832.5,941C 1805.25,950.653 1778.58,949.32 1752.5,937C 1738.23,926.131 1729.56,911.798 1726.5,894C 1736.05,891.635 1745.72,890.302 1755.5,890C 1759.28,908.784 1770.62,919.784 1789.5,923C 1800.54,924.462 1811.21,923.129 1821.5,919C 1831.96,913.238 1836.46,904.405 1835,892.5C 1830.11,883.787 1822.61,878.62 1812.5,877C 1794.9,872.932 1777.56,867.932 1760.5,862C 1736.23,850.963 1727.4,832.463 1734,806.5C 1739.17,793.333 1748.33,784.167 1761.5,779C 1768.21,776.826 1774.87,774.993 1781.5,773.5 Z"/></g>
<g><path style="opacity:0.971" fill="#717275" d="M 2551.5,773.5 C 2609.96,772.291 2639.63,800.957 2640.5,859.5C 2642.13,883.996 2635.3,905.663 2620,924.5C 2598.79,943.787 2573.96,950.953 2545.5,946C 2511.27,938.386 2491.43,917.219 2486,882.5C 2482.79,861.08 2484.46,840.08 2491,819.5C 2502.45,792.691 2522.62,777.358 2551.5,773.5 Z M 2554.5,797.5 C 2586.96,797.118 2605.46,813.118 2610,845.5C 2612.94,865.496 2609.94,884.496 2601,902.5C 2588.48,920.008 2571.65,926.508 2550.5,922C 2528.65,913.848 2516.81,898.014 2515,874.5C 2511.87,853.949 2515.2,834.616 2525,816.5C 2532.69,806.61 2542.52,800.277 2554.5,797.5 Z"/></g>
<g><path style="opacity:0.971" fill="#717275" d="M 3125.5,773.5 C 3183.96,772.291 3213.63,800.957 3214.5,859.5C 3214.99,918.181 3185.99,947.347 3127.5,947C 3085.28,940.796 3062.44,916.296 3059,873.5C 3056.54,851.533 3059.87,830.533 3069,810.5C 3081.99,789.252 3100.83,776.919 3125.5,773.5 Z M 3128.5,797.5 C 3160.96,797.118 3179.46,813.118 3184,845.5C 3186.94,865.501 3183.94,884.501 3175,902.5C 3162.48,920.008 3145.65,926.508 3124.5,922C 3102.65,913.852 3090.82,898.019 3089,874.5C 3086.57,856.147 3088.9,838.48 3096,821.5C 3103.44,808.715 3114.28,800.715 3128.5,797.5 Z"/></g>
<g><path style="opacity:0.971" fill="#717275" d="M 3312.5,773.5 C 3331.64,771.451 3348.97,775.951 3364.5,787C 3373.26,796.022 3378.09,806.855 3379,819.5C 3379.5,860.832 3379.67,902.165 3379.5,943.5C 3369.83,943.5 3360.17,943.5 3350.5,943.5C 3350.97,902.799 3350.47,862.132 3349,821.5C 3343.93,806.28 3333.27,798.613 3317,798.5C 3291.4,799.766 3277.07,813.099 3274,838.5C 3273.5,873.498 3273.33,908.498 3273.5,943.5C 3263.83,943.5 3254.17,943.5 3244.5,943.5C 3244.5,888.167 3244.5,832.833 3244.5,777.5C 3253.17,777.5 3261.83,777.5 3270.5,777.5C 3270.33,784.508 3270.5,791.508 3271,798.5C 3281.42,784.38 3295.25,776.046 3312.5,773.5 Z"/></g>
<g><path style="opacity:0.97" fill="#717275" d="M 3463.5,773.5 C 3484.09,771.484 3503.42,775.317 3521.5,785C 3532.66,794.144 3538.99,805.977 3540.5,820.5C 3531.17,822.095 3521.84,823.262 3512.5,824C 3509.75,808.917 3500.75,800.251 3485.5,798C 3474.6,796.744 3463.93,797.744 3453.5,801C 3441.99,806.851 3438.83,815.685 3444,827.5C 3445.87,829.709 3448.04,831.542 3450.5,833C 3473.14,839.996 3495.81,846.996 3518.5,854C 3540.54,863.233 3549.7,879.733 3546,903.5C 3540.54,924.965 3527.04,938.465 3505.5,944C 3481.44,950.033 3458.11,948.033 3435.5,938C 3420.59,927.698 3411.59,913.532 3408.5,895.5C 3408.82,894.353 3409.48,893.519 3410.5,893C 3419.45,891.396 3428.45,890.229 3437.5,889.5C 3440.23,908.73 3451.23,919.896 3470.5,923C 3482.36,924.714 3493.69,923.047 3504.5,918C 3516.18,910.313 3519.34,900.146 3514,887.5C 3512.13,885.291 3509.96,883.458 3507.5,882C 3484.77,875.202 3462.11,868.202 3439.5,861C 3417.09,849.779 3408.92,831.946 3415,807.5C 3420.8,791.505 3431.96,781.339 3448.5,777C 3453.6,775.64 3458.6,774.474 3463.5,773.5 Z"/></g>
<g><path style="opacity:0.973" fill="#717275" d="M 882.5,777.5 C 892.855,777.168 903.188,777.501 913.5,778.5C 929.762,821.787 944.929,865.454 959,909.5C 973.366,865.434 988.866,821.768 1005.5,778.5C 1015.17,777.167 1024.83,777.167 1034.5,778.5C 1009.63,845.283 984.461,911.95 959,978.5C 949.273,1002.78 931.44,1013.28 905.5,1010C 902.736,1009.47 900.07,1008.63 897.5,1007.5C 895.585,998.603 894.252,989.603 893.5,980.5C 901.736,982.347 910.069,982.847 918.5,982C 927.548,979.288 933.714,973.454 937,964.5C 939.994,957.684 942.494,950.684 944.5,943.5C 923.628,888.214 902.961,832.881 882.5,777.5 Z"/></g>
<g><path style="opacity:0.97" fill="#717275" d="M 2738.5,777.5 C 2748.17,777.5 2757.83,777.5 2767.5,777.5C 2767.03,818.206 2767.53,858.873 2769,899.5C 2773.97,914.582 2784.47,922.249 2800.5,922.5C 2828.49,920.009 2842.99,904.676 2844,876.5C 2844.5,843.502 2844.67,810.502 2844.5,777.5C 2854.17,777.5 2863.83,777.5 2873.5,777.5C 2873.5,832.833 2873.5,888.167 2873.5,943.5C 2864.83,943.5 2856.17,943.5 2847.5,943.5C 2847.67,935.826 2847.5,928.159 2847,920.5C 2834.61,938.697 2817.28,947.697 2795,947.5C 2775.31,947.842 2759.31,940.509 2747,925.5C 2742.94,918.321 2740.27,910.655 2739,902.5C 2738.5,860.835 2738.33,819.168 2738.5,777.5 Z"/></g>
<g><path style="opacity:0.968" fill="#717275" d="M 3000.5,777.5 C 3010.17,777.5 3019.83,777.5 3029.5,777.5C 3029.5,832.833 3029.5,888.167 3029.5,943.5C 3019.83,943.5 3010.17,943.5 3000.5,943.5C 3000.5,888.167 3000.5,832.833 3000.5,777.5 Z"/></g>
<g><path style="opacity:0.997" fill="#717275" d="M 317.5,1299.5 C 309.167,1299.5 300.833,1299.5 292.5,1299.5C 189.992,1286.83 129.826,1229.5 112,1127.5C 106.921,1048.83 136.755,987.329 201.5,943C 222.579,929.528 245.579,921.195 270.5,918C 324.162,907.728 372.828,918.728 416.5,951C 467.61,990.385 493.943,1042.55 495.5,1107.5C 493.502,1171.66 467.502,1223.5 417.5,1263C 387.507,1284.39 354.174,1296.55 317.5,1299.5 Z"/></g>
<g><path style="opacity:0.968" fill="#3232db" d="M 2126.5,1076.5 C 2142.52,1076.2 2151.86,1083.87 2154.5,1099.5C 2154.05,1104.19 2152.55,1108.52 2150,1112.5C 2145.76,1117.41 2140.92,1121.58 2135.5,1125C 2140.82,1132.48 2146.48,1139.65 2152.5,1146.5C 2154.55,1142.47 2156.21,1138.31 2157.5,1134C 2162.36,1134.1 2167.02,1135.1 2171.5,1137C 2169.46,1144.57 2166.46,1151.74 2162.5,1158.5C 2166.98,1164.81 2172.31,1170.31 2178.5,1175C 2175.7,1178.8 2172.54,1182.3 2169,1185.5C 2163.09,1181.63 2157.92,1176.97 2153.5,1171.5C 2138.63,1185.73 2121.96,1188.23 2103.5,1179C 2087.01,1163.59 2086.34,1147.59 2101.5,1131C 2105.57,1127.94 2109.9,1125.27 2114.5,1123C 2108.15,1116.63 2104.48,1108.96 2103.5,1100C 2105.27,1086.39 2112.94,1078.56 2126.5,1076.5 Z M 2124.5,1088.5 C 2138.33,1088.14 2142.83,1094.48 2138,1107.5C 2135.21,1110.89 2131.88,1113.55 2128,1115.5C 2122.81,1111 2119.31,1105.5 2117.5,1099C 2118.06,1094.28 2120.39,1090.78 2124.5,1088.5 Z M 2120.5,1132.5 C 2122.37,1132.86 2123.87,1133.86 2125,1135.5C 2131.31,1143.98 2137.81,1152.31 2144.5,1160.5C 2136.86,1171.44 2126.86,1174.6 2114.5,1170C 2106.05,1163.62 2103.55,1155.45 2107,1145.5C 2110.74,1140.26 2115.24,1135.93 2120.5,1132.5 Z"/></g>
<g><path style="opacity:0.962" fill="#3232db" d="M 680.5,1078.5 C 687.833,1078.5 695.167,1078.5 702.5,1078.5C 711.692,1107.57 721.192,1136.57 731,1165.5C 741.339,1136.65 751.172,1107.65 760.5,1078.5C 767.167,1078.5 773.833,1078.5 780.5,1078.5C 780.5,1113.17 780.5,1147.83 780.5,1182.5C 775.833,1182.5 771.167,1182.5 766.5,1182.5C 766.667,1154.83 766.5,1127.16 766,1099.5C 756.193,1127.09 746.693,1154.76 737.5,1182.5C 732.786,1182.83 728.12,1182.49 723.5,1181.5C 713.901,1153.87 704.401,1126.2 695,1098.5C 694.5,1126.5 694.333,1154.5 694.5,1182.5C 689.833,1182.5 685.167,1182.5 680.5,1182.5C 680.5,1147.83 680.5,1113.17 680.5,1078.5 Z"/></g>
<g><path style="opacity:0.973" fill="#3232db" d="M 949.5,1078.5 C 953.833,1078.5 958.167,1078.5 962.5,1078.5C 962.333,1090.5 962.5,1102.5 963,1114.5C 970.955,1106.8 980.455,1103.97 991.5,1106C 1005.37,1109.19 1011.87,1118.02 1011,1132.5C 1011.5,1149.16 1011.67,1165.83 1011.5,1182.5C 1006.83,1182.5 1002.17,1182.5 997.5,1182.5C 997.667,1164.83 997.5,1147.16 997,1129.5C 993.892,1119.36 987.059,1115.52 976.5,1118C 970.307,1120.19 966.141,1124.36 964,1130.5C 962.588,1147.79 962.088,1165.12 962.5,1182.5C 958.167,1182.5 953.833,1182.5 949.5,1182.5C 949.5,1147.83 949.5,1113.17 949.5,1078.5 Z"/></g>
<g><path style="opacity:0.942" fill="#3232db" d="M 1186.5,1078.5 C 1191.17,1078.5 1195.83,1078.5 1200.5,1078.5C 1200.5,1083.5 1200.5,1088.5 1200.5,1093.5C 1195.83,1093.5 1191.17,1093.5 1186.5,1093.5C 1186.5,1088.5 1186.5,1083.5 1186.5,1078.5 Z"/></g>
<g><path style="opacity:0.967" fill="#3232db" d="M 1368.5,1078.5 C 1372.83,1078.5 1377.17,1078.5 1381.5,1078.5C 1381.5,1113.17 1381.5,1147.83 1381.5,1182.5C 1377.17,1182.5 1372.83,1182.5 1368.5,1182.5C 1368.5,1147.83 1368.5,1113.17 1368.5,1078.5 Z"/></g>
<g><path style="opacity:0.963" fill="#3232db" d="M 1480.5,1078.5 C 1505.83,1078.5 1531.17,1078.5 1556.5,1078.5C 1556.5,1082.83 1556.5,1087.17 1556.5,1091.5C 1535.83,1091.5 1515.17,1091.5 1494.5,1091.5C 1494.5,1101.83 1494.5,1112.17 1494.5,1122.5C 1513.83,1122.5 1533.17,1122.5 1552.5,1122.5C 1552.5,1126.83 1552.5,1131.17 1552.5,1135.5C 1533.17,1135.5 1513.83,1135.5 1494.5,1135.5C 1494.5,1146.83 1494.5,1158.17 1494.5,1169.5C 1515.83,1169.5 1537.17,1169.5 1558.5,1169.5C 1558.5,1173.83 1558.5,1178.17 1558.5,1182.5C 1532.5,1182.5 1506.5,1182.5 1480.5,1182.5C 1480.5,1147.83 1480.5,1113.17 1480.5,1078.5 Z"/></g>
<g><path style="opacity:0.967" fill="#3232db" d="M 1573.5,1078.5 C 1578.17,1078.5 1582.83,1078.5 1587.5,1078.5C 1587.5,1113.17 1587.5,1147.83 1587.5,1182.5C 1582.83,1182.5 1578.17,1182.5 1573.5,1182.5C 1573.5,1147.83 1573.5,1113.17 1573.5,1078.5 Z"/></g>
<g><path style="opacity:0.942" fill="#3232db" d="M 1841.5,1078.5 C 1845.83,1078.5 1850.17,1078.5 1854.5,1078.5C 1854.5,1083.5 1854.5,1088.5 1854.5,1093.5C 1850.17,1093.5 1845.83,1093.5 1841.5,1093.5C 1841.5,1088.5 1841.5,1083.5 1841.5,1078.5 Z"/></g>
<g><path style="opacity:0.976" fill="#3232db" d="M 2022.5,1078.5 C 2026.83,1078.5 2031.17,1078.5 2035.5,1078.5C 2035.5,1113.17 2035.5,1147.83 2035.5,1182.5C 2031.17,1182.5 2026.83,1182.5 2022.5,1182.5C 2022.5,1147.83 2022.5,1113.17 2022.5,1078.5 Z"/></g>
<g><path style="opacity:0.969" fill="#3232db" d="M 2233.5,1078.5 C 2238.17,1078.5 2242.83,1078.5 2247.5,1078.5C 2247.5,1113.17 2247.5,1147.83 2247.5,1182.5C 2242.83,1182.5 2238.17,1182.5 2233.5,1182.5C 2233.5,1147.83 2233.5,1113.17 2233.5,1078.5 Z"/></g>
<g><path style="opacity:0.968" fill="#3232db" d="M 2395.5,1078.5 C 2399.83,1078.5 2404.17,1078.5 2408.5,1078.5C 2408.5,1113.17 2408.5,1147.83 2408.5,1182.5C 2404.5,1182.5 2400.5,1182.5 2396.5,1182.5C 2396.66,1179.81 2396.5,1177.15 2396,1174.5C 2389.15,1182.79 2380.31,1185.95 2369.5,1184C 2358.26,1181.1 2350.43,1174.27 2346,1163.5C 2340.87,1147.11 2342.54,1131.44 2351,1116.5C 2362.53,1104.55 2375.7,1102.38 2390.5,1110C 2392,1111.5 2393.5,1113 2395,1114.5C 2395.5,1102.5 2395.67,1090.5 2395.5,1078.5 Z M 2373.5,1116.5 C 2384.94,1116.77 2392.1,1122.44 2395,1133.5C 2398.15,1145.61 2396.48,1156.95 2390,1167.5C 2380.69,1175.78 2371.69,1175.45 2363,1166.5C 2356.13,1153.98 2355.13,1140.98 2360,1127.5C 2363.21,1122.11 2367.71,1118.44 2373.5,1116.5 Z"/></g>
<g><path style="opacity:0.942" fill="#3232db" d="M 2663.5,1078.5 C 2667.83,1078.5 2672.17,1078.5 2676.5,1078.5C 2676.5,1083.5 2676.5,1088.5 2676.5,1093.5C 2672.17,1093.5 2667.83,1093.5 2663.5,1093.5C 2663.5,1088.5 2663.5,1083.5 2663.5,1078.5 Z"/></g>
<g><path style="opacity:0.976" fill="#3232db" d="M 2773.5,1078.5 C 2777.83,1078.5 2782.17,1078.5 2786.5,1078.5C 2786.5,1113.17 2786.5,1147.83 2786.5,1182.5C 2782.17,1182.5 2777.83,1182.5 2773.5,1182.5C 2773.5,1147.83 2773.5,1113.17 2773.5,1078.5 Z"/></g>
<g><path style="opacity:0.96" fill="#3232db" d="M 2874.5,1078.5 C 2879.87,1078.17 2885.21,1078.51 2890.5,1079.5C 2904.5,1113.5 2918.5,1147.5 2932.5,1181.5C 2926.87,1182.5 2921.21,1182.83 2915.5,1182.5C 2912.24,1172.38 2908.57,1162.38 2904.5,1152.5C 2890.17,1151.17 2875.83,1151.17 2861.5,1152.5C 2858.03,1162.24 2854.36,1171.91 2850.5,1181.5C 2845.2,1182.66 2839.86,1182.83 2834.5,1182C 2848.13,1147.61 2861.46,1113.11 2874.5,1078.5 Z M 2881.5,1092.5 C 2887.59,1107.87 2893.59,1123.37 2899.5,1139C 2888.51,1139.5 2877.51,1139.67 2866.5,1139.5C 2870.98,1126.53 2875.48,1113.53 2880,1100.5C 2880.82,1097.88 2881.32,1095.22 2881.5,1092.5 Z"/></g>
<g><path style="opacity:0.951" fill="#3232db" d="M 3375.5,1078.5 C 3379.83,1078.5 3384.17,1078.5 3388.5,1078.5C 3388.5,1083.5 3388.5,1088.5 3388.5,1093.5C 3384.17,1093.5 3379.83,1093.5 3375.5,1093.5C 3375.5,1088.5 3375.5,1083.5 3375.5,1078.5 Z"/></g>
<g><path style="opacity:0.963" fill="#3232db" d="M 1770.5,1080.5 C 1771.49,1089.32 1771.83,1098.32 1771.5,1107.5C 1775.5,1107.5 1779.5,1107.5 1783.5,1107.5C 1783.5,1110.83 1783.5,1114.17 1783.5,1117.5C 1779.5,1117.5 1775.5,1117.5 1771.5,1117.5C 1771.33,1134.5 1771.5,1151.5 1772,1168.5C 1775.37,1171.51 1779.21,1172.34 1783.5,1171C 1784.38,1173.91 1785.04,1176.91 1785.5,1180C 1785.25,1181.33 1784.58,1182.33 1783.5,1183C 1778.17,1183.67 1772.83,1183.67 1767.5,1183C 1763.73,1181.56 1760.89,1179.06 1759,1175.5C 1757.56,1156.21 1757.06,1136.88 1757.5,1117.5C 1754.5,1117.5 1751.5,1117.5 1748.5,1117.5C 1748.5,1114.17 1748.5,1110.83 1748.5,1107.5C 1751.5,1107.5 1754.5,1107.5 1757.5,1107.5C 1757.33,1101.16 1757.5,1094.82 1758,1088.5C 1762.32,1085.93 1766.48,1083.27 1770.5,1080.5 Z"/></g>
<g><path style="opacity:0.964" fill="#3232db" d="M 2592.5,1080.5 C 2593.49,1089.32 2593.83,1098.32 2593.5,1107.5C 2597.5,1107.5 2601.5,1107.5 2605.5,1107.5C 2605.5,1110.83 2605.5,1114.17 2605.5,1117.5C 2601.5,1117.5 2597.5,1117.5 2593.5,1117.5C 2593.33,1134.5 2593.5,1151.5 2594,1168.5C 2597.37,1171.51 2601.21,1172.34 2605.5,1171C 2606.38,1173.91 2607.04,1176.91 2607.5,1180C 2607.25,1181.33 2606.58,1182.33 2605.5,1183C 2600.17,1183.67 2594.83,1183.67 2589.5,1183C 2585.73,1181.56 2582.89,1179.06 2581,1175.5C 2579.56,1156.21 2579.06,1136.88 2579.5,1117.5C 2576.5,1117.5 2573.5,1117.5 2570.5,1117.5C 2570.5,1114.17 2570.5,1110.83 2570.5,1107.5C 2573.5,1107.5 2576.5,1107.5 2579.5,1107.5C 2579.33,1101.16 2579.5,1094.82 2580,1088.5C 2584.32,1085.93 2588.48,1083.27 2592.5,1080.5 Z"/></g>
<g><path style="opacity:0.966" fill="#3232db" d="M 3034.5,1080.5 C 3035.49,1089.32 3035.83,1098.32 3035.5,1107.5C 3039.5,1107.5 3043.5,1107.5 3047.5,1107.5C 3047.5,1110.83 3047.5,1114.17 3047.5,1117.5C 3043.5,1117.5 3039.5,1117.5 3035.5,1117.5C 3035.33,1134.5 3035.5,1151.5 3036,1168.5C 3039.37,1171.51 3043.21,1172.34 3047.5,1171C 3048.3,1174.1 3048.97,1177.27 3049.5,1180.5C 3049.18,1181.65 3048.52,1182.48 3047.5,1183C 3042.17,1183.67 3036.83,1183.67 3031.5,1183C 3027.73,1181.56 3024.89,1179.06 3023,1175.5C 3021.56,1156.21 3021.06,1136.88 3021.5,1117.5C 3018.5,1117.5 3015.5,1117.5 3012.5,1117.5C 3012.5,1114.17 3012.5,1110.83 3012.5,1107.5C 3015.5,1107.5 3018.5,1107.5 3021.5,1107.5C 3021.33,1101.16 3021.5,1094.82 3022,1088.5C 3026.32,1085.93 3030.48,1083.27 3034.5,1080.5 Z"/></g>
<g><path style="opacity:0.968" fill="#3232db" d="M 3349.5,1081.5 C 3351.47,1089.77 3352.14,1098.44 3351.5,1107.5C 3355.83,1107.5 3360.17,1107.5 3364.5,1107.5C 3364.5,1110.83 3364.5,1114.17 3364.5,1117.5C 3360.17,1117.5 3355.83,1117.5 3351.5,1117.5C 3351.33,1133.17 3351.5,1148.84 3352,1164.5C 3352.16,1166.68 3353,1168.51 3354.5,1170C 3357.82,1171.33 3361.15,1171.83 3364.5,1171.5C 3365.27,1174.46 3365.94,1177.46 3366.5,1180.5C 3366.18,1181.65 3365.52,1182.48 3364.5,1183C 3359.17,1183.67 3353.83,1183.67 3348.5,1183C 3343.23,1181.4 3340.06,1177.9 3339,1172.5C 3338.5,1154.17 3338.33,1135.84 3338.5,1117.5C 3335.5,1117.5 3332.5,1117.5 3329.5,1117.5C 3329.5,1114.17 3329.5,1110.83 3329.5,1107.5C 3332.5,1107.5 3335.5,1107.5 3338.5,1107.5C 3338.33,1101.16 3338.5,1094.82 3339,1088.5C 3342.65,1086.27 3346.15,1083.93 3349.5,1081.5 Z"/></g>
<g><path style="opacity:0.964" fill="#3232db" d="M 822.5,1105.5 C 851.874,1104.54 865.874,1118.88 864.5,1148.5C 845.833,1148.5 827.167,1148.5 808.5,1148.5C 809.351,1165.19 818.017,1173.36 834.5,1173C 838.625,1172.3 842.125,1170.46 845,1167.5C 847,1164.17 849,1160.83 851,1157.5C 855.086,1158.45 859.253,1159.12 863.5,1159.5C 860.526,1173.01 852.193,1181.18 838.5,1184C 806.58,1185.73 792.08,1170.56 795,1138.5C 796.805,1121.21 805.972,1110.21 822.5,1105.5 Z M 826.5,1116.5 C 840.477,1116.31 848.477,1123.14 850.5,1137C 836.837,1137.5 823.171,1137.67 809.5,1137.5C 810.444,1126.57 816.111,1119.57 826.5,1116.5 Z"/></g>
<g><path style="opacity:0.962" fill="#3232db" d="M 902.5,1105.5 C 921.533,1103.07 933.867,1110.9 939.5,1129C 935.045,1130.62 930.378,1131.45 925.5,1131.5C 921.488,1118 912.821,1113.83 899.5,1119C 891,1125.47 887.333,1134.14 888.5,1145C 888.028,1152.28 889.528,1159.11 893,1165.5C 901.216,1174.45 910.383,1175.62 920.5,1169C 924.547,1165.03 926.547,1160.19 926.5,1154.5C 930.49,1155 934.49,1155.5 938.5,1156C 939.308,1156.31 939.975,1156.81 940.5,1157.5C 933.633,1181.1 918.299,1189.27 894.5,1182C 879.766,1174.2 873.099,1161.86 874.5,1145C 873.227,1123.97 882.56,1110.81 902.5,1105.5 Z"/></g>
<g><path style="opacity:0.968" fill="#3232db" d="M 1052.5,1105.5 C 1064,1103.96 1074.67,1106.13 1084.5,1112C 1086.65,1114.47 1088.15,1117.3 1089,1120.5C 1089.37,1138.18 1090.04,1155.84 1091,1173.5C 1091.48,1176.62 1092.65,1179.46 1094.5,1182C 1089.47,1182.83 1084.47,1182.66 1079.5,1181.5C 1078.57,1179.2 1077.73,1176.87 1077,1174.5C 1063.33,1185.51 1048.49,1187.35 1032.5,1180C 1025.01,1173.85 1022.51,1166.02 1025,1156.5C 1027.78,1148.51 1033.28,1143.35 1041.5,1141C 1052.58,1139.41 1063.58,1137.41 1074.5,1135C 1077.33,1129.44 1076.33,1124.44 1071.5,1120C 1062.84,1115.41 1054.18,1115.41 1045.5,1120C 1042.73,1122.87 1040.73,1126.2 1039.5,1130C 1035.15,1130.42 1030.82,1130.25 1026.5,1129.5C 1029.1,1114.9 1037.77,1106.9 1052.5,1105.5 Z M 1075.5,1145.5 C 1077.45,1165.72 1068.12,1174.88 1047.5,1173C 1037.74,1168.8 1036.08,1162.47 1042.5,1154C 1053.53,1150.95 1064.53,1148.11 1075.5,1145.5 Z"/></g>
<g><path style="opacity:0.975" fill="#3232db" d="M 1136.5,1105.5 C 1144.97,1104.6 1152.97,1106.1 1160.5,1110C 1165,1113.83 1167.83,1118.66 1169,1124.5C 1169.5,1143.83 1169.67,1163.16 1169.5,1182.5C 1164.83,1182.5 1160.17,1182.5 1155.5,1182.5C 1155.67,1164.16 1155.5,1145.83 1155,1127.5C 1150.32,1117.82 1142.82,1114.99 1132.5,1119C 1127.57,1120.93 1124.41,1124.43 1123,1129.5C 1121.56,1147.11 1121.06,1164.78 1121.5,1182.5C 1116.83,1182.5 1112.17,1182.5 1107.5,1182.5C 1107.5,1157.5 1107.5,1132.5 1107.5,1107.5C 1111.5,1107.5 1115.5,1107.5 1119.5,1107.5C 1119.34,1110.52 1119.5,1113.52 1120,1116.5C 1124.36,1110.92 1129.86,1107.25 1136.5,1105.5 Z"/></g>
<g><path style="opacity:0.963" fill="#3232db" d="M 1242.5,1105.5 C 1256.06,1103.37 1266.9,1107.71 1275,1118.5C 1277.29,1122.19 1278.45,1126.19 1278.5,1130.5C 1274.11,1131.09 1269.77,1131.09 1265.5,1130.5C 1260.9,1117.7 1252.23,1113.87 1239.5,1119C 1233.37,1122.76 1229.87,1128.26 1229,1135.5C 1228.33,1142.17 1228.33,1148.83 1229,1155.5C 1233.08,1170.79 1242.58,1175.96 1257.5,1171C 1263.4,1167.17 1266.4,1161.67 1266.5,1154.5C 1270.49,1155 1274.49,1155.5 1278.5,1156C 1279.31,1156.31 1279.97,1156.81 1280.5,1157.5C 1273.49,1181.02 1258.16,1189.18 1234.5,1182C 1219.77,1174.23 1213.11,1161.9 1214.5,1145C 1212.97,1123.75 1222.31,1110.58 1242.5,1105.5 Z"/></g>
<g><path style="opacity:0.966" fill="#3232db" d="M 1313.5,1105.5 C 1323.6,1104.49 1333.27,1105.99 1342.5,1110C 1346.38,1112.93 1348.88,1116.76 1350,1121.5C 1350.33,1136.83 1350.67,1152.17 1351,1167.5C 1351.04,1172.46 1352.2,1177.13 1354.5,1181.5C 1349.87,1182.66 1345.2,1182.83 1340.5,1182C 1339.29,1179.65 1338.45,1177.15 1338,1174.5C 1324.76,1185.03 1310.26,1187.2 1294.5,1181C 1281.58,1169.38 1281.24,1157.38 1293.5,1145C 1297.53,1142.55 1301.86,1140.88 1306.5,1140C 1316.56,1139.18 1326.39,1137.35 1336,1134.5C 1338.44,1123.94 1334.27,1118.11 1323.5,1117C 1312.32,1114.92 1304.65,1119.09 1300.5,1129.5C 1295.83,1130.5 1291.16,1130.34 1286.5,1129C 1290.11,1114.89 1299.11,1107.06 1313.5,1105.5 Z M 1335.5,1145.5 C 1338.19,1166.31 1328.85,1175.48 1307.5,1173C 1301.03,1170.2 1298.53,1165.37 1300,1158.5C 1300.78,1156.71 1301.95,1155.21 1303.5,1154C 1314.23,1151.05 1324.9,1148.22 1335.5,1145.5 Z"/></g>
<g><path style="opacity:0.963" fill="#3232db" d="M 1628.5,1105.5 C 1657.88,1104.55 1671.88,1118.88 1670.5,1148.5C 1651.83,1148.5 1633.17,1148.5 1614.5,1148.5C 1615.35,1165.19 1624.02,1173.36 1640.5,1173C 1644.63,1172.3 1648.13,1170.46 1651,1167.5C 1653,1164.17 1655,1160.83 1657,1157.5C 1661.45,1158.37 1665.95,1159.2 1670.5,1160C 1663.6,1179.19 1649.93,1187.19 1629.5,1184C 1612.34,1180.55 1602.84,1170.05 1601,1152.5C 1598.52,1136.54 1603.02,1123.04 1614.5,1112C 1618.88,1108.97 1623.54,1106.81 1628.5,1105.5 Z M 1632.5,1116.5 C 1646.48,1116.31 1654.48,1123.14 1656.5,1137C 1642.84,1137.5 1629.17,1137.67 1615.5,1137.5C 1616.45,1126.56 1622.12,1119.56 1632.5,1116.5 Z"/></g>
<g><path style="opacity:0.961" fill="#3232db" d="M 1708.5,1105.5 C 1727.53,1103.07 1739.87,1110.9 1745.5,1129C 1741.04,1130.62 1736.38,1131.45 1731.5,1131.5C 1729.99,1122.16 1724.49,1117.16 1715,1116.5C 1706.8,1117.26 1700.8,1121.26 1697,1128.5C 1693.15,1141.11 1693.82,1153.45 1699,1165.5C 1707.22,1174.45 1716.38,1175.62 1726.5,1169C 1730.55,1165.03 1732.55,1160.19 1732.5,1154.5C 1736.88,1154.92 1741.21,1155.59 1745.5,1156.5C 1744.18,1171.22 1736.18,1180.38 1721.5,1184C 1694.26,1185.43 1680.59,1172.43 1680.5,1145C 1679.24,1123.93 1688.58,1110.76 1708.5,1105.5 Z"/></g>
<g><path style="opacity:0.979" fill="#3232db" d="M 1817.5,1105.5 C 1823.56,1104.84 1829.23,1106 1834.5,1109C 1835.02,1109.56 1835.36,1110.23 1835.5,1111C 1834,1114.83 1832.5,1118.67 1831,1122.5C 1821.73,1116.94 1814.73,1118.94 1810,1128.5C 1809.12,1131.79 1808.45,1135.12 1808,1138.5C 1807.5,1153.16 1807.33,1167.83 1807.5,1182.5C 1803.17,1182.5 1798.83,1182.5 1794.5,1182.5C 1794.5,1157.5 1794.5,1132.5 1794.5,1107.5C 1798.5,1107.5 1802.5,1107.5 1806.5,1107.5C 1806.34,1110.52 1806.5,1113.52 1807,1116.5C 1809.36,1111.65 1812.86,1107.98 1817.5,1105.5 Z"/></g>
<g><path style="opacity:0.959" fill="#3232db" d="M 1896.5,1105.5 C 1911.6,1103.46 1923.1,1108.8 1931,1121.5C 1932.11,1124.15 1932.78,1126.82 1933,1129.5C 1928.64,1130.86 1924.14,1131.53 1919.5,1131.5C 1917.32,1120.57 1910.65,1115.73 1899.5,1117C 1891.41,1118.76 1886.24,1123.59 1884,1131.5C 1881.79,1141.59 1882.12,1151.59 1885,1161.5C 1891.8,1173.24 1901.3,1176.08 1913.5,1170C 1917.74,1165.85 1920.41,1160.85 1921.5,1155C 1925.52,1155 1929.52,1155.5 1933.5,1156.5C 1932.63,1171.55 1924.63,1180.72 1909.5,1184C 1887.19,1186.93 1873.69,1177.43 1869,1155.5C 1866.93,1142.47 1868.93,1130.13 1875,1118.5C 1880.64,1111.44 1887.81,1107.1 1896.5,1105.5 Z"/></g>
<g><path style="opacity:0.968" fill="#3232db" d="M 1967.5,1105.5 C 1977.6,1104.49 1987.27,1105.99 1996.5,1110C 2000.38,1112.93 2002.88,1116.76 2004,1121.5C 2004.29,1139.18 2004.96,1156.85 2006,1174.5C 2007.14,1177.1 2007.97,1179.76 2008.5,1182.5C 2003.79,1182.83 1999.12,1182.49 1994.5,1181.5C 1993.57,1179.2 1992.73,1176.87 1992,1174.5C 1978.33,1185.51 1963.49,1187.35 1947.5,1180C 1940.01,1173.85 1937.51,1166.02 1940,1156.5C 1942.07,1149.43 1946.57,1144.59 1953.5,1142C 1965.49,1139.67 1977.49,1137.33 1989.5,1135C 1992.05,1129.5 1991.05,1124.5 1986.5,1120C 1977.84,1115.41 1969.18,1115.41 1960.5,1120C 1957.73,1122.87 1955.73,1126.2 1954.5,1130C 1950.15,1130.42 1945.82,1130.25 1941.5,1129.5C 1944.1,1114.9 1952.77,1106.9 1967.5,1105.5 Z M 1990.5,1145.5 C 1992.48,1165.69 1983.15,1174.85 1962.5,1173C 1952.75,1168.85 1951.08,1162.52 1957.5,1154C 1968.53,1150.95 1979.53,1148.11 1990.5,1145.5 Z"/></g>
<g><path style="opacity:0.971" fill="#3232db" d="M 2297.5,1105.5 C 2307.96,1104.07 2317.13,1106.74 2325,1113.5C 2328.5,1118.99 2330.16,1124.99 2330,1131.5C 2330.5,1148.5 2330.67,1165.5 2330.5,1182.5C 2325.83,1182.5 2321.17,1182.5 2316.5,1182.5C 2316.67,1164.83 2316.5,1147.16 2316,1129.5C 2312.89,1119.36 2306.06,1115.52 2295.5,1118C 2288.88,1120.29 2284.71,1124.79 2283,1131.5C 2281.62,1148.47 2281.12,1165.47 2281.5,1182.5C 2277.17,1182.5 2272.83,1182.5 2268.5,1182.5C 2268.5,1157.5 2268.5,1132.5 2268.5,1107.5C 2272.5,1107.5 2276.5,1107.5 2280.5,1107.5C 2280.34,1110.52 2280.5,1113.52 2281,1116.5C 2282.12,1114.38 2283.62,1112.54 2285.5,1111C 2289.48,1108.84 2293.48,1107 2297.5,1105.5 Z"/></g>
<g><path style="opacity:0.962" fill="#3232db" d="M 2524.5,1105.5 C 2535.32,1104.21 2545.32,1106.37 2554.5,1112C 2558.26,1116.11 2560.6,1120.94 2561.5,1126.5C 2556.95,1127.98 2552.29,1128.65 2547.5,1128.5C 2545.75,1120.35 2540.59,1116.35 2532,1116.5C 2528.01,1116.7 2524.18,1117.53 2520.5,1119C 2514.94,1124.16 2515.27,1128.83 2521.5,1133C 2531.56,1135.8 2541.56,1138.8 2551.5,1142C 2563.42,1148.27 2566.92,1157.77 2562,1170.5C 2555.01,1180.49 2545.34,1185.16 2533,1184.5C 2515.27,1185.39 2504.43,1177.23 2500.5,1160C 2505.16,1159.06 2509.83,1158.22 2514.5,1157.5C 2517.13,1169.95 2524.8,1175.11 2537.5,1173C 2544.29,1172.21 2548.62,1168.54 2550.5,1162C 2550.07,1159.68 2549.07,1157.68 2547.5,1156C 2537.33,1152.21 2527,1148.87 2516.5,1146C 2503.6,1139.68 2500.1,1129.85 2506,1116.5C 2510.78,1110.36 2516.95,1106.7 2524.5,1105.5 Z"/></g>
<g><path style="opacity:0.975" fill="#3232db" d="M 2639.5,1105.5 C 2645.56,1104.84 2651.23,1106 2656.5,1109C 2657.02,1109.56 2657.36,1110.23 2657.5,1111C 2656,1114.83 2654.5,1118.67 2653,1122.5C 2643.73,1116.94 2636.73,1118.94 2632,1128.5C 2631.12,1131.79 2630.45,1135.12 2630,1138.5C 2629.5,1153.16 2629.33,1167.83 2629.5,1182.5C 2625.17,1182.5 2620.83,1182.5 2616.5,1182.5C 2616.5,1157.5 2616.5,1132.5 2616.5,1107.5C 2620.5,1107.5 2624.5,1107.5 2628.5,1107.5C 2628.34,1110.52 2628.5,1113.52 2629,1116.5C 2631.36,1111.65 2634.86,1107.98 2639.5,1105.5 Z"/></g>
<g><path style="opacity:0.966" fill="#3232db" d="M 2718.5,1105.5 C 2728.6,1104.49 2738.27,1105.99 2747.5,1110C 2751.38,1112.93 2753.88,1116.76 2755,1121.5C 2755.33,1136.17 2755.67,1150.83 2756,1165.5C 2756.05,1171.1 2757.21,1176.43 2759.5,1181.5C 2754.87,1182.66 2750.2,1182.83 2745.5,1182C 2744.29,1179.65 2743.45,1177.15 2743,1174.5C 2729.77,1185.03 2715.27,1187.2 2699.5,1181C 2688.81,1171.35 2687.31,1160.52 2695,1148.5C 2697.56,1145.47 2700.73,1143.3 2704.5,1142C 2713.71,1139.68 2723.04,1138.02 2732.5,1137C 2735.17,1136.33 2737.83,1135.67 2740.5,1135C 2741.52,1134.48 2742.18,1133.65 2742.5,1132.5C 2741.92,1121.26 2735.92,1115.93 2724.5,1116.5C 2714.88,1116.14 2708.54,1120.47 2705.5,1129.5C 2701.19,1130.42 2696.86,1130.42 2692.5,1129.5C 2695.1,1114.9 2703.77,1106.9 2718.5,1105.5 Z M 2740.5,1145.5 C 2744.14,1157.41 2740.14,1166.25 2728.5,1172C 2723.25,1173.51 2717.92,1173.84 2712.5,1173C 2703.65,1168.22 2702.32,1161.89 2708.5,1154C 2719.23,1151.05 2729.9,1148.22 2740.5,1145.5 Z"/></g>
<g><path style="opacity:0.965" fill="#3232db" d="M 3081.5,1105.5 C 3102.09,1103.03 3115.92,1111.36 3123,1130.5C 3125.4,1142.35 3124.73,1154.02 3121,1165.5C 3116.94,1174.56 3110.11,1180.39 3100.5,1183C 3084.19,1187.39 3070.69,1183.22 3060,1170.5C 3053.04,1156.74 3051.71,1142.41 3056,1127.5C 3060.84,1115.84 3069.34,1108.51 3081.5,1105.5 Z M 3086.5,1116.5 C 3103.31,1118.07 3111.31,1127.4 3110.5,1144.5C 3111.2,1155.6 3107.2,1164.44 3098.5,1171C 3084.32,1175.94 3074.49,1171.44 3069,1157.5C 3066.06,1145.89 3067.39,1134.89 3073,1124.5C 3076.7,1120.27 3081.2,1117.6 3086.5,1116.5 Z"/></g>
<g><path style="opacity:0.968" fill="#3232db" d="M 3166.5,1105.5 C 3173.53,1104.8 3180.19,1105.97 3186.5,1109C 3189.43,1111.26 3191.6,1114.1 3193,1117.5C 3205.01,1103.97 3218.68,1101.97 3234,1111.5C 3236.48,1114.79 3238.14,1118.46 3239,1122.5C 3239.5,1142.5 3239.67,1162.5 3239.5,1182.5C 3235.17,1182.5 3230.83,1182.5 3226.5,1182.5C 3226.67,1164.5 3226.5,1146.5 3226,1128.5C 3224.71,1121.21 3220.38,1117.55 3213,1117.5C 3204.81,1117.7 3199.47,1121.7 3197,1129.5C 3195.56,1147.11 3195.06,1164.78 3195.5,1182.5C 3191.17,1182.5 3186.83,1182.5 3182.5,1182.5C 3182.91,1163.46 3182.41,1144.46 3181,1125.5C 3179.2,1119.86 3175.37,1117.2 3169.5,1117.5C 3161.47,1117.36 3155.97,1121.03 3153,1128.5C 3151.55,1146.44 3151.05,1164.44 3151.5,1182.5C 3146.83,1182.5 3142.17,1182.5 3137.5,1182.5C 3137.5,1157.5 3137.5,1132.5 3137.5,1107.5C 3141.5,1107.5 3145.5,1107.5 3149.5,1107.5C 3149.34,1110.52 3149.5,1113.52 3150,1116.5C 3154.07,1110.58 3159.57,1106.91 3166.5,1105.5 Z"/></g>
<g><path style="opacity:0.966" fill="#3232db" d="M 3281.5,1105.5 C 3292.12,1104.21 3302.12,1106.04 3311.5,1111C 3315.37,1114.25 3317.53,1118.42 3318,1123.5C 3318.33,1139.5 3318.67,1155.5 3319,1171.5C 3319.37,1175.29 3320.54,1178.79 3322.5,1182C 3317.51,1182.5 3312.51,1182.67 3307.5,1182.5C 3307.28,1179.61 3306.45,1176.94 3305,1174.5C 3292.97,1184.55 3279.47,1187.05 3264.5,1182C 3252.26,1174.21 3249.42,1163.71 3256,1150.5C 3259.76,1145.7 3264.59,1142.54 3270.5,1141C 3281.63,1139.43 3292.63,1137.27 3303.5,1134.5C 3305.66,1124.49 3301.66,1118.66 3291.5,1117C 3279.5,1114.57 3271.84,1119.07 3268.5,1130.5C 3263.71,1130.65 3259.05,1129.98 3254.5,1128.5C 3258.15,1114.51 3267.15,1106.85 3281.5,1105.5 Z M 3303.5,1145.5 C 3306.45,1162.41 3299.28,1171.74 3282,1173.5C 3271.38,1173.88 3266.71,1168.88 3268,1158.5C 3269.12,1156.38 3270.62,1154.54 3272.5,1153C 3283.01,1150.7 3293.35,1148.2 3303.5,1145.5 Z"/></g>
<g><path style="opacity:0.966" fill="#3232db" d="M 3429.5,1105.5 C 3450.56,1102.93 3464.39,1111.6 3471,1131.5C 3473.58,1143.82 3472.58,1155.82 3468,1167.5C 3458.9,1181.29 3446.07,1186.79 3429.5,1184C 3413.44,1180.61 3404.27,1170.77 3402,1154.5C 3400.47,1143.45 3401.81,1132.78 3406,1122.5C 3411.48,1113.52 3419.31,1107.85 3429.5,1105.5 Z M 3434.5,1116.5 C 3446.34,1116.5 3453.84,1122.16 3457,1133.5C 3459.82,1144.74 3458.49,1155.4 3453,1165.5C 3442.32,1176.16 3431.65,1176.16 3421,1165.5C 3416.91,1159.31 3415.08,1152.48 3415.5,1145C 3414.66,1130.4 3420.99,1120.9 3434.5,1116.5 Z"/></g>
<g><path style="opacity:0.967" fill="#3232db" d="M 3547.5,1130.5 C 3547.5,1147.83 3547.5,1165.17 3547.5,1182.5C 3542.83,1182.5 3538.17,1182.5 3533.5,1182.5C 3533.67,1164.83 3533.5,1147.16 3533,1129.5C 3531.35,1121.68 3526.51,1117.68 3518.5,1117.5C 3508.73,1117.46 3502.57,1122.13 3500,1131.5C 3498.64,1148.47 3498.14,1165.47 3498.5,1182.5C 3494.17,1182.5 3489.83,1182.5 3485.5,1182.5C 3485.5,1157.5 3485.5,1132.5 3485.5,1107.5C 3489.5,1107.5 3493.5,1107.5 3497.5,1107.5C 3497.34,1110.52 3497.5,1113.52 3498,1116.5C 3505.6,1107.13 3515.44,1103.63 3527.5,1106C 3540.7,1108.91 3547.36,1117.08 3547.5,1130.5 Z"/></g>
<g><path style="opacity:0.971" fill="#3232db" d="M 1186.5,1107.5 C 1191.17,1107.5 1195.83,1107.5 1200.5,1107.5C 1200.5,1132.5 1200.5,1157.5 1200.5,1182.5C 1195.83,1182.5 1191.17,1182.5 1186.5,1182.5C 1186.5,1157.5 1186.5,1132.5 1186.5,1107.5 Z"/></g>
<g><path style="opacity:0.971" fill="#3232dc" d="M 1841.5,1107.5 C 1845.83,1107.5 1850.17,1107.5 1854.5,1107.5C 1854.5,1132.5 1854.5,1157.5 1854.5,1182.5C 1850.17,1182.5 1845.83,1182.5 1841.5,1182.5C 1841.5,1157.5 1841.5,1132.5 1841.5,1107.5 Z"/></g>
<g><path style="opacity:0.97" fill="#3232db" d="M 2426.5,1107.5 C 2431.17,1107.5 2435.83,1107.5 2440.5,1107.5C 2440.33,1125.84 2440.5,1144.17 2441,1162.5C 2443.25,1169.58 2448.08,1172.92 2455.5,1172.5C 2463.91,1172.25 2469.75,1168.25 2473,1160.5C 2474.44,1142.89 2474.94,1125.22 2474.5,1107.5C 2479.17,1107.5 2483.83,1107.5 2488.5,1107.5C 2488.5,1132.5 2488.5,1157.5 2488.5,1182.5C 2484.17,1182.5 2479.83,1182.5 2475.5,1182.5C 2475.66,1179.81 2475.5,1177.15 2475,1174.5C 2464.89,1184.65 2453.05,1187.15 2439.5,1182C 2432.03,1178.58 2427.87,1172.75 2427,1164.5C 2426.5,1145.5 2426.33,1126.5 2426.5,1107.5 Z"/></g>
<g><path style="opacity:0.971" fill="#3232dc" d="M 2663.5,1107.5 C 2667.83,1107.5 2672.17,1107.5 2676.5,1107.5C 2676.5,1132.5 2676.5,1157.5 2676.5,1182.5C 2672.17,1182.5 2667.83,1182.5 2663.5,1182.5C 2663.5,1157.5 2663.5,1132.5 2663.5,1107.5 Z"/></g>
<g><path style="opacity:0.976" fill="#3232db" d="M 2939.5,1107.5 C 2944.17,1107.5 2948.83,1107.5 2953.5,1107.5C 2953.33,1125.84 2953.5,1144.17 2954,1162.5C 2959.63,1172.8 2967.79,1175.3 2978.5,1170C 2982.3,1167.91 2984.8,1164.75 2986,1160.5C 2987.44,1142.89 2987.94,1125.22 2987.5,1107.5C 2992.17,1107.5 2996.83,1107.5 3001.5,1107.5C 3001.5,1132.5 3001.5,1157.5 3001.5,1182.5C 2997.5,1182.5 2993.5,1182.5 2989.5,1182.5C 2989.66,1179.48 2989.5,1176.48 2989,1173.5C 2978.81,1184.42 2966.64,1187.25 2952.5,1182C 2944.74,1178.33 2940.57,1172.16 2940,1163.5C 2939.5,1144.84 2939.33,1126.17 2939.5,1107.5 Z"/></g>
<g><path style="opacity:0.981" fill="#3332dc" d="M 3375.5,1107.5 C 3379.83,1107.5 3384.17,1107.5 3388.5,1107.5C 3388.5,1132.5 3388.5,1157.5 3388.5,1182.5C 3384.17,1182.5 3379.83,1182.5 3375.5,1182.5C 3375.5,1157.5 3375.5,1132.5 3375.5,1107.5 Z"/></g>
<g><path style="opacity:0.942" fill="#3232db" d="M 1402.5,1167.5 C 1407.5,1167.5 1412.5,1167.5 1417.5,1167.5C 1417.67,1175.17 1417.5,1182.84 1417,1190.5C 1415.52,1196.65 1411.86,1200.98 1406,1203.5C 1404.38,1201.76 1402.88,1199.93 1401.5,1198C 1407.42,1194.57 1410.08,1189.4 1409.5,1182.5C 1407.17,1182.5 1404.83,1182.5 1402.5,1182.5C 1402.5,1177.5 1402.5,1172.5 1402.5,1167.5 Z"/></g>
</svg>
